<svg xmlns="http://www.w3.org/2000/svg" xmlns:xlink="http://www.w3.org/1999/xlink" width="671.542" height="146.718"><defs><path id="a" d="M0 0h671.542v146.718H0z"/></defs><clipPath id="b"><use xlink:href="#a" overflow="visible"/></clipPath><path clip-path="url(#b)" fill="#EB6600" d="M110.733 60.674c-.076-.088-.157-.171-.233-.259-11.157 7.813-28.975 13.898-50.419 16.709.045 1.119.112 2.234.112 3.363a77.25 77.25 0 01-.058 3.09 82.683 82.683 0 01-.385 5.348 228.61 228.61 0 0017.178.104c18.267-.577 34.968-3.298 48.857-7.501a152.957 152.957 0 00-15.052-20.854"/><path clip-path="url(#b)" fill="#F29600" d="M76.928 89.029c-5.833.185-11.574.142-17.178-.104-2.381 23.357-14.516 43.833-32.281 57.259 30.626-5.974 56.49-25.278 71.309-51.624 21.513 11.018 38.659 29.354 48.17 51.712-2.106-23.534-9.584-45.513-21.163-64.744-13.889 4.202-30.589 6.924-48.857 7.501M60.081 77.124c21.444-2.812 39.262-8.896 50.419-16.709C87.607 33.911 55.747 15.374 19.623 9.536c23.374 13.773 39.296 38.781 40.458 67.588"/><path clip-path="url(#b)" fill="#EE8696" d="M60.135 83.577c.041-1.025.059-2.052.059-3.09 0-1.13-.068-2.244-.113-3.363a202.198 202.198 0 01-19.904 1.604c-14.248.45-27.914-.532-40.177-2.657 14.967 7.112 36.115 11.818 59.75 12.854.18-1.769.319-3.548.385-5.348m21.116-72.942c25.158 6.296 41.708 17.77 41.854 30.684.077 6.879-4.524 13.437-12.605 19.095.076.088.157.172.232.26a153.135 153.135 0 0115.053 20.854c24.542-7.425 40.274-19.491 40.125-32.638-.223-19.881-36.675-36.581-84.659-38.255"/><path clip-path="url(#b)" fill="#F29600" d="M347.799 13.705c0-1.035-.86-1.896-1.896-1.896h-15.516a1.912 1.912 0 00-1.896 1.896v29.824c0 51.03-3.276 80.164-16.206 91.716-.516.345-.69.861-.69 1.378v5.172c0 .691.346 1.38.862 1.725.346.172.69.172 1.035.172s.69-.172.862-.343c23.963-14.999 33.444-49.996 33.444-103.784v-25.86zm-55.331-1.896h-15.516a1.913 1.913 0 00-1.897 1.896v36.203c0 54.65-18.101 73.786-35.858 85.338-.517.344-.862 1.032-.862 1.549v5.52c0 .688.345 1.205.862 1.55.346.173.689.347 1.034.347.173 0 .518-.174.69-.174 34.997-15.516 53.443-49.305 53.443-97.922v-32.41a1.913 1.913 0 00-1.896-1.897m-58.616 0h-15.516a1.912 1.912 0 00-1.896 1.896v58.788c0 1.033.862 1.722 1.896 1.722h15.516c1.035 0 1.896-.689 1.896-1.722V13.705a1.912 1.912 0 00-1.896-1.896m286.16 10.858c27.239 3.967 54.134 14.482 72.579 30.171.345.345.862.517 1.207.517.175 0 .52-.172.692-.172.688-.345 1.032-1.036 1.032-1.724V32.324c0-.691-.173-1.207-.689-1.552-18.102-11.377-49.824-17.93-74.649-19.137-.516 0-1.033.346-1.379.691-.344.172-.518.689-.518 1.205v7.415c0 .861.692 1.721 1.725 1.721m-98.26 1.725h32.67c1.032 0 1.896-.86 1.896-1.896v-8.791a1.913 1.913 0 00-1.896-1.896h-32.67c-1.034 0-1.725.861-1.725 1.896v8.791c0 1.036.691 1.896 1.725 1.896m103.432 30.171c-.518 0-.86.172-1.206.344-.346.344-.518.861-.518 1.38v7.585c0 .861.518 1.552 1.379 1.724 24.31 5.689 44.824 15.859 60.858 30.685.343.175.688.347 1.206.347h.689c.688-.347 1.034-1.035 1.034-1.724V76.285c0-.518-.172-1.035-.689-1.38-14.137-11.033-38.789-20.342-62.581-20.342h-.172zm-58.661-30.171h8.358a2.146 2.146 0 002.147-2.146V2.052a2.147 2.147 0 00-2.147-2.147h-8.358a2.146 2.146 0 00-2.146 2.147v20.194a2.147 2.147 0 002.146 2.146m20.406 0h8.359a2.147 2.147 0 002.147-2.146V2.052a2.148 2.148 0 00-2.147-2.147h-8.359a2.146 2.146 0 00-2.146 2.147v20.194c0 1.185.96 2.146 2.146 2.146m29.634 75.684c-.517 0-1.033.173-1.379.518-.344.344-.517.86-.517 1.206v7.415c0 1.032.689 1.721 1.551 1.896 27.756 4.482 57.065 17.583 78.271 34.996.344.345.688.517 1.207.517.172 0 .516-.172.688-.172.688-.345 1.032-1.035 1.032-1.724v-19.137c0-.518-.344-1.034-.688-1.379-19.307-13.276-53.788-24.136-80.165-24.136m153.082-30.17h-54.131c-1.036 0-1.896.688-1.896 1.724v8.965c0 1.033.859 1.725 1.896 1.725h54.131c1.036 0 1.896-.691 1.896-1.725V71.63c0-1.036-.86-1.724-1.896-1.724m-172.21-17.411V43.53c0-.864-.861-1.724-1.725-1.724h-78.613c-1.035 0-1.896.86-1.896 1.724v8.965c0 1.033.861 1.896 1.896 1.896h40.859v1.206c0 51.894-15.689 65.339-32.412 79.648-.345.345-.688.861-.688 1.378v5.517c0 .52.344 1.208.861 1.552.345.173.69.173 1.034.173s.518 0 .862-.173c33.272-17.41 49.65-46.719 50.341-89.301h17.756c.863 0 1.725-.863 1.725-1.896m-99.468 90.68v-25.858c0-57.236-11.723-90.165-34.135-103.958-.344-.173-.689-.173-1.034-.173s-.688 0-.861.173c-.518.346-1.034.863-1.034 1.551v5.345c0 .517.344 1.035.517 1.38 13.275 13.79 17.239 45.341 17.239 91.716v29.824c0 1.036.863 1.896 1.896 1.896h15.517c1.033 0 1.895-.86 1.895-1.896"/></svg>