<?xml version="1.0" encoding="utf-8"?>
<!-- Generator: Adobe Illustrator 15.1.0, SVG Export Plug-In . SVG Version: 6.00 Build 0)  -->
<!DOCTYPE svg PUBLIC "-//W3C//DTD SVG 1.1//EN" "http://www.w3.org/Graphics/SVG/1.1/DTD/svg11.dtd">
<svg version="1.1" id="レイヤー_1" xmlns="http://www.w3.org/2000/svg" xmlns:xlink="http://www.w3.org/1999/xlink" x="0px"
	 y="0px" width="671.542px" height="146.718px" viewBox="0 0 671.542 146.718" enable-background="new 0 0 671.542 146.718"
	 xml:space="preserve">
<g>
	<defs>
		<rect id="SVGID_1_" width="671.542" height="146.718"/>
	</defs>
	<clipPath id="SVGID_2_">
		<use xlink:href="#SVGID_1_"  overflow="visible"/>
	</clipPath>
	<path clip-path="url(#SVGID_2_)" fill="#EB6600" d="M110.733,60.674c-0.076-0.088-0.157-0.171-0.233-0.259
		c-11.157,7.813-28.975,13.898-50.419,16.709c0.045,1.119,0.112,2.234,0.112,3.363c0,1.039-0.017,2.063-0.058,3.09
		c-0.066,1.8-0.205,3.579-0.385,5.348c5.604,0.245,11.344,0.288,17.178,0.104c18.267-0.577,34.968-3.298,48.857-7.501
		C121.344,74.153,116.319,67.168,110.733,60.674"/>
	<path clip-path="url(#SVGID_2_)" fill="#F29600" d="M76.928,89.029c-5.833,0.185-11.574,0.142-17.178-0.104
		c-2.381,23.357-14.516,43.833-32.281,57.259c30.626-5.974,56.49-25.278,71.309-51.624c21.513,11.018,38.659,29.354,48.17,51.712
		c-2.106-23.534-9.584-45.513-21.163-64.744C111.896,85.73,95.196,88.452,76.928,89.029"/>
	<path clip-path="url(#SVGID_2_)" fill="#F29600" d="M60.081,77.124c21.444-2.812,39.262-8.896,50.419-16.709
		C87.607,33.911,55.747,15.374,19.623,9.536C42.997,23.309,58.919,48.317,60.081,77.124"/>
	<path clip-path="url(#SVGID_2_)" fill="#EE8696" d="M60.135,83.577c0.041-1.025,0.059-2.052,0.059-3.09
		c0-1.13-0.068-2.244-0.113-3.363c-6.348,0.832-13.002,1.387-19.904,1.604C25.929,79.178,12.263,78.196,0,76.071
		c14.967,7.112,36.115,11.818,59.75,12.854C59.93,87.156,60.069,85.377,60.135,83.577"/>
	<path clip-path="url(#SVGID_2_)" fill="#EE8696" d="M81.251,10.635c25.158,6.296,41.708,17.77,41.854,30.684
		c0.077,6.879-4.524,13.437-12.605,19.095c0.076,0.088,0.157,0.172,0.232,0.26c5.585,6.494,10.611,13.479,15.053,20.854
		c24.542-7.425,40.274-19.491,40.125-32.638C165.687,29.009,129.235,12.309,81.251,10.635"/>
	<path clip-path="url(#SVGID_2_)" fill="#F29600" d="M347.799,13.705c0-1.035-0.86-1.896-1.896-1.896h-15.516
		c-1.034,0-1.896,0.861-1.896,1.896v29.824c0,51.03-3.276,80.164-16.206,91.716c-0.516,0.345-0.69,0.861-0.69,1.378v5.172
		c0,0.691,0.346,1.38,0.862,1.725c0.346,0.172,0.69,0.172,1.035,0.172c0.345,0,0.69-0.172,0.862-0.343
		c23.963-14.999,33.444-49.996,33.444-103.784V13.705z"/>
	<path clip-path="url(#SVGID_2_)" fill="#F29600" d="M292.468,11.809h-15.516c-1.034,0-1.897,0.861-1.897,1.896v36.203
		c0,54.65-18.101,73.786-35.858,85.338c-0.517,0.344-0.862,1.032-0.862,1.549v5.52c0,0.688,0.345,1.205,0.862,1.55
		c0.346,0.173,0.689,0.347,1.034,0.347c0.173,0,0.518-0.174,0.69-0.174c34.997-15.516,53.443-49.305,53.443-97.922v-32.41
		C294.364,12.67,293.502,11.809,292.468,11.809"/>
	<path clip-path="url(#SVGID_2_)" fill="#F29600" d="M233.852,11.809h-15.516c-1.034,0-1.896,0.861-1.896,1.896v58.788
		c0,1.033,0.862,1.722,1.896,1.722h15.516c1.035,0,1.896-0.689,1.896-1.722V13.705C235.748,12.67,234.887,11.809,233.852,11.809"/>
	<path clip-path="url(#SVGID_2_)" fill="#F29600" d="M520.012,22.667c27.239,3.967,54.134,14.482,72.579,30.171
		c0.345,0.345,0.862,0.517,1.207,0.517c0.175,0,0.52-0.172,0.692-0.172c0.688-0.345,1.032-1.036,1.032-1.724V32.324
		c0-0.691-0.173-1.207-0.689-1.552c-18.102-11.377-49.824-17.93-74.649-19.137c-0.516,0-1.033,0.346-1.379,0.691
		c-0.344,0.172-0.518,0.689-0.518,1.205v7.415C518.287,21.807,518.979,22.667,520.012,22.667"/>
	<path clip-path="url(#SVGID_2_)" fill="#F29600" d="M421.752,24.392h32.67c1.032,0,1.896-0.86,1.896-1.896v-8.791
		c0-1.035-0.863-1.896-1.896-1.896h-32.67c-1.034,0-1.725,0.861-1.725,1.896v8.791C420.027,23.532,420.718,24.392,421.752,24.392"/>
	<path clip-path="url(#SVGID_2_)" fill="#F29600" d="M525.184,54.563c-0.518,0-0.86,0.172-1.206,0.344
		c-0.346,0.344-0.518,0.861-0.518,1.38v7.585c0,0.861,0.518,1.552,1.379,1.724c24.31,5.689,44.824,15.859,60.858,30.685
		c0.343,0.175,0.688,0.347,1.206,0.347h0.689c0.688-0.347,1.034-1.035,1.034-1.724V76.285c0-0.518-0.172-1.035-0.689-1.38
		c-14.137-11.033-38.789-20.342-62.581-20.342H525.184z"/>
	<path clip-path="url(#SVGID_2_)" fill="#F29600" d="M466.523,24.392h8.358c1.187,0,2.147-0.961,2.147-2.146V2.052
		c0-1.186-0.961-2.147-2.147-2.147h-8.358c-1.186,0-2.146,0.961-2.146,2.147v20.194C464.378,23.431,465.338,24.392,466.523,24.392"
		/>
	<path clip-path="url(#SVGID_2_)" fill="#F29600" d="M486.929,24.392h8.359c1.185,0,2.147-0.961,2.147-2.146V2.052
		c0-1.186-0.963-2.147-2.147-2.147h-8.359c-1.186,0-2.146,0.961-2.146,2.147v20.194C484.783,23.431,485.743,24.392,486.929,24.392"
		/>
	<path clip-path="url(#SVGID_2_)" fill="#F29600" d="M516.563,100.076c-0.517,0-1.033,0.173-1.379,0.518
		c-0.344,0.344-0.517,0.86-0.517,1.206v7.415c0,1.032,0.689,1.721,1.551,1.896c27.756,4.482,57.065,17.583,78.271,34.996
		c0.344,0.345,0.688,0.517,1.207,0.517c0.172,0,0.516-0.172,0.688-0.172c0.688-0.345,1.032-1.035,1.032-1.724v-19.137
		c0-0.518-0.344-1.034-0.688-1.379C577.421,110.936,542.94,100.076,516.563,100.076"/>
	<path clip-path="url(#SVGID_2_)" fill="#F29600" d="M669.645,69.906h-54.131c-1.036,0-1.896,0.688-1.896,1.724v8.965
		c0,1.033,0.859,1.725,1.896,1.725h54.131c1.036,0,1.896-0.691,1.896-1.725V71.63C671.541,70.594,670.681,69.906,669.645,69.906"/>
	<path clip-path="url(#SVGID_2_)" fill="#F29600" d="M497.435,52.495V43.53c0-0.864-0.861-1.724-1.725-1.724h-78.613
		c-1.035,0-1.896,0.86-1.896,1.724v8.965c0,1.033,0.861,1.896,1.896,1.896h40.859v1.206c0,51.894-15.689,65.339-32.412,79.648
		c-0.345,0.345-0.688,0.861-0.688,1.378v5.517c0,0.52,0.344,1.208,0.861,1.552c0.345,0.173,0.69,0.173,1.034,0.173
		s0.518,0,0.862-0.173c33.272-17.41,49.65-46.719,50.341-89.301h17.756C496.573,54.391,497.435,53.528,497.435,52.495"/>
	<path clip-path="url(#SVGID_2_)" fill="#F29600" d="M397.967,143.175v-25.858c0-57.236-11.723-90.165-34.135-103.958
		c-0.344-0.173-0.689-0.173-1.034-0.173s-0.688,0-0.861,0.173c-0.518,0.346-1.034,0.863-1.034,1.551v5.345
		c0,0.517,0.344,1.035,0.517,1.38c13.275,13.79,17.239,45.341,17.239,91.716v29.824c0,1.036,0.863,1.896,1.896,1.896h15.517
		C397.105,145.071,397.967,144.211,397.967,143.175"/>
</g>
<g>
	<defs>
		<rect id="SVGID_3_" width="671.542" height="146.718"/>
	</defs>
	<clipPath id="SVGID_4_">
		<use xlink:href="#SVGID_3_"  overflow="visible"/>
	</clipPath>
</g>
<g>
	<defs>
		<rect id="SVGID_5_" width="671.542" height="146.718"/>
	</defs>
	<clipPath id="SVGID_6_">
		<use xlink:href="#SVGID_5_"  overflow="visible"/>
	</clipPath>
</g>
</svg>
